<?xml version="1.0" encoding="utf-8"?>
<!-- Generator: Adobe Illustrator 27.5.0, SVG Export Plug-In . SVG Version: 6.00 Build 0)  -->
<svg version="1.1" xmlns="http://www.w3.org/2000/svg" xmlns:xlink="http://www.w3.org/1999/xlink" x="0px" y="0px"
	 viewBox="0 0 500 500" style="enable-background:new 0 0 500 500;" xml:space="preserve">
<g id="BACKGROUND">
	<rect style="fill:#FFFFFF;" width="500" height="500"/>
</g>
<g id="OBJECTS">
	<rect style="fill:#FFFFFF;" width="500" height="500"/>
	<g>
		<g>
			<path style="fill:#FFDCCA;" d="M461.138,450.628c0,0-8.645,0.532-23.756,1.346c-2.662,0.135-5.518,0.281-8.567,0.445
				c-68.043,3.485-229.929,10.377-352.715,4.492c-2.43-0.116-4.85-0.233-7.251-0.368c-6.166-0.32-12.226-0.677-18.16-1.074
				c0,0,8.712-29.041,31.945-60.018c0,0,5.537-0.097,15.595-0.251c1.868-0.02,3.901-0.049,6.089-0.078
				c49.002-0.736,173.754-2.401,298.64-2.566h6.167c4.434-0.009,8.867-0.009,13.291-0.009
				C422.417,392.546,444.682,414.811,461.138,450.628z"/>
			<path style="fill:#FFC3A9;" d="M104.319,395.121c-6.863,12.894-12.739,26.33-18.732,39.632
				c-3.311,7.318-6.573,14.666-9.487,22.159c-2.43-0.116-4.85-0.233-7.251-0.368c3.059-7.976,6.524-15.808,10.058-23.601
				c5.866-12.943,11.723-25.818,19.322-37.744C100.098,395.179,102.131,395.15,104.319,395.121z"/>
			<path style="fill:#FFC3A9;" d="M437.383,451.974c-2.662,0.135-5.518,0.281-8.567,0.445c-3.02-8.161-6.331-16.225-9.874-24.269
				c-3.591-8.18-7.376-16.282-11.132-24.394c-1.684-3.649-3.252-7.435-4.85-11.201h6.167c1.762,2.798,3.475,5.624,5.053,8.538
				c4.385,8.121,8.374,16.437,12.217,24.83C430.277,434.394,434.13,443.097,437.383,451.974z"/>
			<path style="fill:#FFC3A9;" d="M58.517,447.681c-2.186-0.515-4.472-0.26-6.698-0.128c-2.217,0.131-4.412,0.205-6.541,0.875
				c-0.872,0.275-0.91,1.55,0,1.809c2.143,0.609,4.326,0.628,6.541,0.697c2.223,0.069,4.533,0.269,6.698-0.307
				C59.944,450.247,60,448.03,58.517,447.681z"/>
			<path style="fill:#FFC3A9;" d="M59.847,439.212c-1.684-0.617-3.293-0.293-5.041-0.218c-1.662,0.07-3.382-0.166-4.997,0.285
				c-1.225,0.343-1.518,2.131-0.361,2.765c1.609,0.882,3.555,0.934,5.358,1.041c1.938,0.115,3.733,0.208,5.439-0.832
				C61.535,441.466,61.165,439.695,59.847,439.212z"/>
			<path style="fill:#FFC3A9;" d="M64.309,431.85c-3.421-1.833-8.628-1.492-12.32-0.7c-1.138,0.244-1.112,2.014,0,2.275
				c1.987,0.467,3.946,0.644,5.971,0.869c2.034,0.225,3.988,0.632,6.009,0.155C65.144,434.172,65.375,432.421,64.309,431.85z"/>
			<path style="fill:#FFC3A9;" d="M67.104,424.684c-3.005-1.071-6.625-1.458-9.783-0.987c-1.674,0.25-1.308,2.584,0,3.039
				c2.844,0.989,6.33,1.386,9.333,1.276C68.611,427.94,68.892,425.321,67.104,424.684z"/>
			<path style="fill:#FFC3A9;" d="M70.351,417.659c-1.774-0.373-3.532-0.445-5.342-0.468c-1.451-0.019-3.333-0.243-4.538,0.682
				c-0.304,0.233-0.528,0.666-0.271,1.035c0.931,1.34,2.781,1.665,4.315,1.938c1.965,0.349,3.862,0.47,5.836,0.167
				C72.057,420.752,71.963,417.998,70.351,417.659z"/>
			<path style="fill:#FFC3A9;" d="M74.67,411.547c-2.332-0.378-4.582-0.269-6.938-0.153c-1.84,0.091-3.94-0.111-5.389,1.155
				c-0.357,0.313-0.304,0.9,0,1.219c1.326,1.396,3.575,1.304,5.389,1.399c2.362,0.124,4.657,0.102,6.938-0.558
				C76.067,414.206,76.294,411.81,74.67,411.547z"/>
			<path style="fill:#FFC3A9;" d="M79.77,404.803c-2.213-0.688-4.407-0.692-6.707-0.702c-2.047-0.009-4.11-0.248-5.999,0.632
				c-0.845,0.393-0.621,1.513,0,1.959c1.687,1.211,3.987,1.231,5.999,1.38c2.318,0.172,4.507,0.161,6.707-0.643
				C81.011,406.975,81.111,405.22,79.77,404.803z"/>
			<path style="fill:#FFC3A9;" d="M85.401,398.232c-3.661-0.6-7.46-1.602-11.172-1.696c-1.688-0.042-2.303,2.339-0.856,3.162
				c3.39,1.929,7.694,2.356,11.526,2.247C86.928,401.888,87.59,398.591,85.401,398.232z"/>
			<path style="fill:#FFC3A9;" d="M429.676,394.346c-1.891-0.227-3.753,0.028-5.633,0.275c-1.686,0.221-3.556,0.268-5.014,1.199
				c-0.987,0.63-0.717,1.959,0.307,2.35c1.652,0.631,3.609,0.27,5.341,0.135c1.842-0.143,3.659-0.282,5.418-0.869
				C431.859,396.846,431.401,394.553,429.676,394.346z"/>
			<path style="fill:#FFC3A9;" d="M436.42,400.595c-2.484-0.501-4.88-0.37-7.372,0.046c-2.121,0.354-4.363,0.647-5.712,2.449
				c-0.32,0.428-0.078,1.15,0.363,1.386c1.837,0.984,3.906,0.416,5.899,0.23c2.301-0.214,4.563-0.334,6.821-0.845
				C438.012,403.502,438.059,400.925,436.42,400.595z"/>
			<path style="fill:#FFC3A9;" d="M440.489,408.045c-3.744-0.443-8.073,0.795-11.393,2.529c-0.999,0.522-0.533,2.145,0.573,2.114
				c3.614-0.1,7.797-0.379,11.255-1.435C442.789,410.684,442.254,408.254,440.489,408.045z"/>
			<path style="fill:#FFC3A9;" d="M445.432,415.78c-1.995-0.511-3.948-0.091-5.91,0.417c-1.742,0.452-3.868,0.983-5.092,2.37
				c-0.478,0.541-0.34,1.514,0.447,1.694c1.726,0.395,3.553-0.173,5.277-0.418c1.964-0.279,3.824-0.354,5.657-1.159
				C447.096,418.118,446.665,416.095,445.432,415.78z"/>
			<path style="fill:#FFC3A9;" d="M451.531,424.228c-2.352-0.869-4.916-0.322-7.298,0.208c-1.87,0.417-4.582,0.64-5.531,2.516
				c-0.134,0.265-0.149,0.692,0.116,0.898c1.679,1.312,3.942,0.566,5.934,0.417c2.441-0.182,4.926-0.165,7.134-1.331
				C453.103,426.295,452.649,424.641,451.531,424.228z"/>
			<path style="fill:#FFC3A9;" d="M457.833,431.443c-2.24-0.598-4.379-0.5-6.663-0.172c-1.863,0.268-4.027,0.525-5.431,1.861
				c-0.347,0.33-0.293,1.014,0.159,1.236c1.681,0.826,3.679,0.567,5.517,0.566c2.181,0,4.289-0.035,6.418-0.545
				C459.312,434.036,459.264,431.825,457.833,431.443z"/>
			<path style="fill:#FFC3A9;" d="M460.007,439.544c-3.297-0.23-6.911-0.297-10.096,0.726c-1.835,0.589-2.268,3.84,0,4.171
				c3.549,0.518,7.179-0.091,10.635-0.916C462.87,442.97,462.198,439.697,460.007,439.544z"/>
		</g>
		<g>
			<g>
				<path style="fill:#FFF6EE;" d="M94,56c0,0,33-2,84,0c0,0,2,50.112,0,98.056c0,0-45,3.944-84-0.056C94,154,91,94,94,56z"/>
				<path style="fill:#FFFFFF;" d="M167.34,141.78c0,0-2.19,0.19-5.93,0.43c-9.24,0.58-27.96,1.44-46.65,0.34
					c-3.42-0.2-6.85-0.46-10.21-0.81c0,0-2.24-44.85,0-73.25c0,0,24.67-1.49,62.79,0C167.34,68.49,168.83,105.95,167.34,141.78z"/>
				<path style="fill:#FFE6D9;" d="M162.84,136.69c-0.33,1.88-0.81,3.72-1.43,5.52c-9.24,0.58-27.96,1.44-46.65,0.34
					c-0.48-1.19-0.95-2.39-1.41-3.58c-2.94-7.67-5.52-15.67-5.42-23.89c0.01-0.79,0.08-1.66,0.64-2.21c0.44-0.43,1.1-0.56,1.72-0.55
					c3.28,0.06,5.46,3.3,7.06,6.17c2.76,4.98,5.52,9.95,8.28,14.93c-3.7-14.26-7.39-29.42-2.99-43.47
					c7.78,7.49,10.21,18.81,12.27,29.42c0.3-6.7-0.57-13.41-0.38-20.11c0.19-6.71,1.58-13.68,5.78-18.91
					c0.65-0.81,1.47-1.62,2.5-1.7c1.77-0.13,2.9,1.84,3.37,3.55c1.24,4.47,1.19,9.18,1.09,13.81c-0.27,12.96-0.81,25.9-1.35,38.85
					c1.13-4.97,2.55-9.87,4.25-14.67c1.33-3.75,3.48-7.99,7.41-8.56c1.07-0.16,2.3,0.07,2.91,0.95c0.54,0.77,0.45,1.81,0.33,2.74
					c-1.03,7.71-3.05,15.28-6,22.47c1.38-0.95,2.2-2.53,3.49-3.59c1.29-1.07,3.57-1.35,4.38,0.11
					C163.09,135.02,162.98,135.89,162.84,136.69z"/>
			</g>
			<g>
				<path style="fill:#FFF6EE;" d="M215,144c0,0,33-2,84,0c0,0,2,50.112,0,98.056c0,0-45,3.944-84-0.056C215,242,212,182,215,144z"
					/>
				<path style="fill:#FFFFFF;" d="M288.34,229.78c0,0-2.19,0.19-5.93,0.43c-9.24,0.58-27.96,1.44-46.65,0.34
					c-3.42-0.2-6.85-0.46-10.21-0.81c0,0-2.24-44.85,0-73.25c0,0,24.67-1.49,62.79,0C288.34,156.49,289.83,193.95,288.34,229.78z"/>
				<path style="fill:#FFE6D9;" d="M283.84,224.69c-0.33,1.88-0.81,3.72-1.43,5.52c-9.24,0.58-27.96,1.44-46.65,0.34
					c-0.48-1.19-0.95-2.39-1.41-3.58c-2.94-7.67-5.52-15.67-5.42-23.89c0.01-0.79,0.08-1.66,0.64-2.21c0.44-0.43,1.1-0.56,1.72-0.55
					c3.28,0.06,5.46,3.3,7.06,6.17c2.76,4.98,5.52,9.95,8.28,14.93c-3.7-14.26-7.39-29.42-2.99-43.47
					c7.78,7.49,10.21,18.81,12.27,29.42c0.3-6.7-0.57-13.41-0.38-20.11c0.19-6.71,1.58-13.68,5.78-18.91
					c0.65-0.81,1.47-1.62,2.5-1.7c1.77-0.13,2.9,1.84,3.37,3.55c1.24,4.47,1.19,9.18,1.09,13.81c-0.27,12.96-0.81,25.9-1.35,38.85
					c1.13-4.97,2.55-9.87,4.25-14.67c1.33-3.75,3.48-7.99,7.41-8.56c1.07-0.16,2.3,0.07,2.91,0.95c0.54,0.77,0.45,1.81,0.33,2.74
					c-1.03,7.71-3.05,15.28-6,22.47c1.38-0.95,2.2-2.53,3.49-3.59c1.29-1.07,3.57-1.35,4.38,0.11
					C284.09,223.02,283.98,223.89,283.84,224.69z"/>
			</g>
			<g>
				<g>
					<path style="fill:#FFC7AE;" d="M361.801,242.36c-1.991-8.146-0.498-17.572,4.757-23.612c1.673-1.923,3.708-3.522,4.901-5.853
						c1.87-3.652,1.261-8.24,0.234-12.293c-1.66-6.553-4.259-12.784-5.683-19.406c-1.424-6.622-1.553-13.985,1.517-19.86
						c2.085-3.989,5.628-7.386,5.853-12.005c0.182-3.727-1.89-7.042-3.273-10.435c-1.911-4.687-2.571-10.076-1.5-15.089
						c1.071-5.013,3.943-9.587,7.967-12.062c4.907-3.018,11.928-2.191,15.048,3.027c2.496,4.173,1.958,9.683,3.051,14.559
						c1.931,8.616,8.951,15.124,10.143,23.908c1.641,12.092-8.24,22.567-9.113,34.76c-0.659,9.208,3.917,18.506,1.815,27.437
						c-1.636,6.951-7.09,12.354-7.984,19.474c-0.563,4.484,0.767,9.236-0.607,13.493c-1.696,5.256-9.883,14.341-15.341,12.236
						C367.892,258.441,363.27,248.371,361.801,242.36z"/>
					<path style="fill:#FFD0BB;" d="M342.865,251.575c-2.465-3.672-4.572-7.807-5.164-12.359c-0.602-4.634,0.402-9.311,0.972-13.949
						c0.874-7.115,0.618-14.79-2.779-20.874c-1.924-3.446-4.728-6.151-6.921-9.387c-6.046-8.919-6.828-21.771-2.403-31.821
						c0.991-2.251,2.222-4.386,2.925-6.771c1.314-4.462,0.658-9.304,0.354-13.992c-0.279-4.301-0.225-8.762,1.27-12.733
						c1.495-3.971,4.712-7.367,8.539-7.687c5.502-0.46,9.883,5.268,11.931,11.026c2.607,7.328,3.051,15.46,2.222,23.297
						c-0.628,5.936-1.938,12.145-0.048,17.732c1.229,3.635,3.68,6.545,5.966,9.464c3.298,4.21,6.524,9.116,6.515,14.725
						c-0.009,5.544-3.222,10.809-2.446,16.285c0.751,5.296,4.954,9.017,7.141,13.783c2.668,5.814,2.152,12.882,0.372,19.111
						c-1.16,4.059-2.872,8.012-5.563,11.017C357.486,267.667,348.534,260.02,342.865,251.575z"/>
					<path style="fill:#FFB89C;" d="M361.244,262.429c-1.981-6.466-5.695-12.077-6.642-18.947
						c-1.649-11.962,2.626-24.565-1.616-36.148c-2.063-5.635-6.032-9.801-8.907-14.865c-3.852-6.785-3.672-14.415-2.498-22.063
						c1.781-11.602,6.021-24.583-0.331-35.37c-0.446-0.757-1.428-0.103-1.078,0.708c5.512,12.759-0.448,25.948-1.774,38.917
						c-0.592,5.786-0.268,11.708,2.112,16.981c2.324,5.147,6.218,9.113,8.763,14.101c5.74,11.251,1.229,24.783,2.511,36.929
						c0.618,5.859,2.888,10.667,5.099,15.914c3.024,7.174,3.971,14.467,3.245,22.332c-0.153,1.661,2.404,2.069,2.617,0.398
						C363.557,274.961,363.109,268.516,361.244,262.429z"/>
					<path style="fill:#FFE6D9;" d="M381.908,196.557c-0.376-12.015,6.695-22.23,6.39-34.395c-0.157-6.281-1.594-12.35-3.046-18.378
						c-1.66-6.894-2.361-12.679-0.964-19.699c0.16-0.806-0.75-1.21-1.158-0.549c-6.023,9.761,1.142,24.814,1.941,35.25
						c0.537,7.006-0.657,13.245-2.814,19.764c-1.859,5.619-3.622,11.13-3.549,17.208c0.081,6.751,1.919,13.267,2.301,19.981
						c0.383,6.725-1.314,12.81-3.464,18.995c-4.245,12.209-6.957,24.038-3.759,37.067c0.516,2.1,3.31,1.216,2.893-0.896
						c-1.456-7.361-1.789-14.683-0.226-22.075c1.224-5.789,3.547-11.168,5.331-16.745c1.702-5.316,2.716-10.676,2.395-16.345
						C383.814,209.29,382.109,203.022,381.908,196.557z"/>
				</g>
				<g>
					<path style="fill:#FFE6D9;" d="M397.881,253.308c0,0-1.646,14.036-3.991,31.762c-0.254,1.912-0.517,3.868-0.779,5.861
						c-1.471,10.856-3.148,22.613-4.841,33.138c-0.294,1.832-0.588,3.628-0.882,5.37c-1.304,7.755-2.608,14.554-3.8,19.415
						c0,0-19.23,3.083-36.489,0c0,0-1.32-7.737-3.108-19.093c-0.23-1.43-0.461-2.922-0.707-4.467
						c-1.701-10.9-3.705-24.284-5.398-37.177c-0.143-1.099-0.286-2.198-0.421-3.288c-1.534-11.954-2.759-23.266-3.18-31.521
						C334.284,253.308,363.372,249.609,397.881,253.308z"/>
					<path style="fill:#FFF6EE;" d="M385.949,286.607c-7.067,0.492-15.47-0.84-20.565-6.728c4.817-4.762,8.363-12.124,3.577-18.021
						c-2.377-2.939-6.431-2.85-9.071-0.349c-3.442,3.27-3.657,9.113-2.44,13.634c0.413,1.546,0.978,2.948,1.653,4.262
						c-1.105,0.652-2.234,1.197-3.323,1.644c-5.875,2.412-12.083,3.609-18.316,3.779c0.135,1.09,0.278,2.189,0.421,3.288
						c7.457,0.098,15.009-1.072,21.742-4.11c0.596-0.268,1.216-0.599,1.836-0.992c4.333,5.28,10.947,8.05,17.378,8.783
						c4.523,0.509,9.452,0.241,14.27-0.867c0.262-1.992,0.525-3.949,0.779-5.861C391.362,285.874,388.739,286.419,385.949,286.607z
						 M363.046,276.394c-0.047-0.098-0.103-0.178-0.151-0.277c-0.994-2.064-1.709-4.557-1.502-6.933
						c0.111-1.376,0.97-4.297,2.52-4.503c2.894-0.366,2.767,3.047,2.584,4.762C366.202,272.267,364.858,274.554,363.046,276.394z"/>
					<path style="fill:#FFF6EE;" d="M385.79,324.337c-4.507,0.331-9.118-0.188-13.371-1.983c-0.779-0.331-1.669-0.76-2.584-1.277
						c3.458-3.538,5.597-8.095,3.832-13.438c-3.085-9.337-13.84-5.316-14.786,3.351c-0.445,4.083,0.994,7.451,3.379,10.14
						c-1.518,0.929-3.092,1.68-4.563,2.278c-4.627,1.867-9.579,2.493-14.413,1.885c0.246,1.546,0.477,3.038,0.707,4.467
						c4.953,0.67,10.017,0.134,14.842-1.698c2.17-0.822,4.706-2.082,7.099-3.735c3.744,2.591,8.283,4.172,11.813,4.789
						c3.196,0.554,6.431,0.643,9.643,0.322c0.294-1.742,0.588-3.538,0.882-5.37C387.451,324.185,386.624,324.275,385.79,324.337z
						 M368.388,315.367c-0.66,1.063-1.479,2.037-2.393,2.922c-1.98-1.903-3.363-4.324-2.87-7.201
						c0.549-3.216,4.11-5.834,6.034-2.493C370.383,310.73,369.564,313.437,368.388,315.367z"/>
				</g>
			</g>
		</g>
		<g>
			<defs>
				<rect id="SVGID_1_" width="500" height="500"/>
			</defs>
			<clipPath id="SVGID_00000119116142334749038390000008536667187702880161_">
				<use xlink:href="#SVGID_1_"  style="overflow:visible;"/>
			</clipPath>
			<g style="clip-path:url(#SVGID_00000119116142334749038390000008536667187702880161_);">
				<path style="fill:#FFF6EE;" d="M256.386,104.463c2.791,2.236,6.439,3.257,10.015,3.217c2.907-0.032,5.918-0.796,8.08-2.739
					c3.445-3.096,3.921-8.243,4.063-12.872c0.017-0.557,0.026-1.143-0.237-1.634c-0.394-0.735-1.27-1.044-2.073-1.268
					c-6.104-1.704-12.573-2.083-18.835-1.104C249.191,89.347,251.562,100.599,256.386,104.463z"/>
				<g>
					<path style="fill:#FFE6D9;" d="M234.36,93.16c0,0-6.21-55.806,32.18-55.806c0,0,35.003-1.495,25.97,56.305
						C292.51,93.658,260.33,98.641,234.36,93.16z"/>
					<path style="fill:#FFE6D9;" d="M267.656,36.124c-0.028-7.913-0.075-15.825-0.145-23.738
						c-0.14-15.834-0.136-31.672-1.343-47.476c-0.097-1.269-2.155-1.276-2.241,0c-1.073,15.809-0.936,31.645-0.942,47.476
						c-0.003,7.68,0.014,15.36,0.052,23.04c0.039,8.08-0.532,16.397,0.45,24.436c0.271,2.215,3.668,2.234,3.922,0
						C268.298,52.047,267.684,43.972,267.656,36.124z"/>
				</g>
				<path style="fill:#FFF6EE;" d="M286.228,62.551c-1.409-4.422-3.182-9.34-6.715-12.504c-1.258-1.126-4.011-0.491-3.761,1.558
					c0.513,4.196,2.267,8.095,3.232,12.203c1.026,4.37,1.05,9.013,2.544,13.25c0.992,2.813,5.332,3.233,6.142,0
					C288.877,72.239,287.71,67.2,286.228,62.551z"/>
			</g>
		</g>
	</g>
	<g>
		<path style="fill:#42B3BC;" d="M198.741,266.459c4.264,8.227,8.848,17.428,13.641,27.382c11.255-3.393,42.25-11.782,53.73-14.313
			c2.326,7.519,4.397,14.559,6.055,22.253c-40.854,15.813-61.849,36.413-87.324,21.771c-1.475-21.08-10.481-41.565-8.551-62.609
			c0.585-6.38,2.441-13.512,9.849-9.771C192.084,254.174,195.797,260.779,198.741,266.459z"/>
		<g>
			<path style="fill:#E56E61;" d="M269.884,364.539c5.479,8.327,13.079,15.037,21.016,21.066
				c5.219,3.965,10.626,7.682,16.197,11.137c6.443,3.996,13.964,7.767,21.306,5.879c7.904-2.033,12.771-9.925,15.691-17.546
				c3.617-9.438,5.459-20.304,1.225-29.482c-2.637-5.717-7.375-10.196-12.393-13.998c-10.922-8.273-23.734-14.034-37.171-16.712
				c-6.373-1.27-12.963-1.853-19.371-0.775C255.688,327.591,261.541,351.859,269.884,364.539z"/>
			<path style="fill:#DB6458;" d="M385.928,330.195c4.358-9.784,9.675-19.199,15.878-28.119c4.532-6.517,10.054-13.12,18.484-15.543
				c3.682-1.059,8.396-1.021,11.185,1.594c1.357,1.272,2.031,2.95,2.558,4.585c2.337,7.243,2.563,14.863,0.65,21.934
				c-0.251,0.929-0.571,1.896-1.375,2.523c-1.604,1.252-4.473,0.507-5.974-1.024c-1.502-1.531-1.995-3.56-2.431-5.484
				c0.589,3.588,1.177,7.241,0.511,10.74c-0.666,3.499-2.792,6.883-6.438,8.381c-3.647,1.498-8.882,0.525-11.092-2.652
				c2.591,6.294,3.346,13.042,2.172,19.415c-0.575,3.12-1.707,6.298-4.364,8.359c-2.657,2.061-7.19,2.588-10.108,0.435
				c2.075,4.02,4.099,8.158,4.537,12.45c0.438,4.292-0.967,8.832-4.763,11.354c-3.796,2.523-10.206,2.265-13.399-1.215
				c4.601,3.181,4.828,9.575,1.336,13.234c-10.664,11.173-42.391-2.229-30.385-15.821c5.733-6.49,14.04-10.588,19.287-17.592
				C378.477,349.366,381.773,339.524,385.928,330.195z"/>
			<path style="fill:#ED7966;" d="M256.694,344.904c-1.034,6.126-3.367,11.949-5.792,17.669c-3.238,7.639-6.549,15.25-10.117,22.742
				c-2.351,4.936-4.234,10.31-7.93,14.452c-2.158,2.418-5.121,3.995-7.181,6.501c-1.785,2.172-3.792,7.532-0.446,9.321
				c0.931,0.498,2.038,0.5,3.093,0.491c3.499-0.03,7.003-0.002,10.501-0.09c2.496-0.063,5.765,0.566,8.053-0.591
				c1.967-0.994,3.113-3.432,4.309-5.18c1.529-2.232,3.023-4.486,4.482-6.764c6.907-10.776,12.698-22.063,18.131-33.639
				c4.614-9.831,9.65-19.317,16.057-28.118c0.391-0.537,0.798-1.119,0.817-1.784c0.018-0.627-0.315-1.204-0.641-1.74
				c-2.384-3.923,6.241-7.505,3.48-11.172c-2.518-3.345-5.201-6.59-8.306-9.398c-3.851-3.481-8.278-6.242-12.621-9.053
				c-3.351-2.168-7.261-5.846-11.588-5.104c-9.334,1.6-4.606,17.352-4.078,23.443C257.446,333.013,256.584,338.872,256.694,344.904z
				"/>
			<path style="fill:#ED7966;" d="M276.237,401.483c-0.206,1.617-0.465,3.328-1.252,4.718c-0.939,1.658-2.617,2.406-3.68,3.915
				c-1.187,1.683-1.447,4.188-1.275,6.294c0.048,0.591,0.146,1.204,0.457,1.686c0.501,0.777,1.41,1.018,2.24,1.175
				c6.267,1.181,12.588,0.593,18.679-1.18c0.592-0.172,1.198-0.368,1.672-0.803c0.877-0.806,1.089-2.209,1.243-3.487
				c0.357-2.969,0.72-5.937,1.088-8.904c0.658-5.306,1.336-10.621,2.497-15.805c1.445-6.457,3.625-12.652,5.799-18.825
				c4.557-12.944,9.115-25.887,13.672-38.831c-5.026-5.931-32.314-63.682-36.108-44.236c-3.662,18.769-5.516,38.313-8.073,57.335
				C271.783,355.033,277.577,390.972,276.237,401.483z"/>
			<path style="fill:#ED7966;" d="M394.694,381.522c-1.304-10.383-5.283-20.722-8.996-30.36c-5.981-15.521-13.741-30.564-24-43.709
				c-2.55-3.268-5.26-6.413-8.148-9.387c-12.33-12.698-28.972-22.169-36.13-39.114c-8.846-20.94-2.253-53.027-31.753-58.815
				c-11.041-2.166-22.949,1.808-29.983,10.59c-5.767-0.224-11.533-0.487-17.296-0.787c-4.474-0.233-8.175,3.537-7.771,7.999
				c0.395,4.359,1.936,8.549,4.608,12.266c4.361,6.066,10.97,10.334,18.117,12.508c2.333,0.71,4.663,1.929,6.872,2.962
				c-0.033,0.215-0.064,0.43-0.096,0.645c-2.437,1.416-4.077,5.119-5.208,7.142c-2.646,4.735-4.927,9.682-6.826,14.775
				c-0.627,1.68-1.209,3.576-0.507,5.223c0.703,1.647,3.328,2.357,4.196,0.792c-1.377,3.483-2.754,6.965-4.131,10.448
				c-0.708,1.79-1.429,3.703-1.078,5.598c0.351,1.896,2.255,3.62,4.051,3.006c-2.018,3.604-3.509,7.513-4.409,11.558
				c-0.39,1.754-0.667,3.607-0.167,5.332c0.499,1.724,1.975,3.273,3.741,3.293c-2.391,4.753-1.592,10.968,1.919,14.931
				c-0.565,2.499-0.59,5.122-0.074,7.63c0.523,2.541,2.207,5.375,4.755,5.246c0.558-0.028,1.054-0.193,1.499-0.452
				c20.19,9.176,40.858,12.808,62.679,16.785c-5.887,4.618-6.899,12.718-5.401,20.048c1.365,6.678,5.951,12.186,10.587,17.183
				c-2.278,1.575-4.546,3.474-7.093,4.604c-2.62,1.162-10.082,1.257-12.867,2.011c-5.555,1.504-13.47,5.979-8.072,12.554
				c1.724,2.1,4.427,3.233,7.132,3.483c3.928,0.364,7.65-1.188,11.534-1.479c11.075-0.829,26.597-0.875,37.687-0.263
				c9.579,0.529,19.594,2.447,28.844-1.079C394.659,410.211,396.017,392.055,394.694,381.522z"/>
			<path style="fill:#DB6458;" d="M302.718,213.333c2.263,5.187,1.042,10.289,1.13,15.64c0.123,7.458,1.626,15.153,2.423,22.573
				c1.537,14.302-14.203,15.894-23.884,9.35c-3.728-2.52-6.727-6.482-7.052-10.971c-0.507-7.018,5.107-12.26,7.71-18.292
				c2.86-6.626,2.348-17.469,8.829-22.014C295.93,206.776,300.845,209.039,302.718,213.333z"/>
			<g>
				<g>
					<path style="fill:#1E2144;" d="M243.813,211.781c-0.481-2.326-3.527-2.911-5.485-3.178c-1.947-0.265-5.85-0.977-7.02,1.083
						c-0.814,1.434-0.721,3.781-0.122,5.255c0.758,1.867,2.365,2.423,4.285,2.322C237.984,217.131,244.565,215.423,243.813,211.781z
						"/>
					<path style="fill:#1E2144;" d="M259.955,233.113c-0.656-1.115-0.995-2.368-1.662-3.472c-0.146-0.242-0.505-0.264-0.657-0.013
						c-0.393,0.647-0.511,1.359-0.454,2.073c-6.237,1.095-14.104,3.002-18.08-3.293c-1.594-2.524-2.289-5.545-2.658-8.477
						c-0.376-2.992-0.029-6.128-0.798-9.053c-0.105-0.4-0.645-0.381-0.778-0.015c-1.167,3.204-1.003,7.141-0.616,10.479
						c0.398,3.435,1.471,7.061,3.702,9.776c0.016,0.02,0.033,0.037,0.049,0.056c-0.805,0.137-1.634,0.01-2.401-0.334
						c-0.721-0.323-1.216-1.032-1.947-1.259c-0.053-0.016-0.106,0.017-0.123,0.067c-0.362,1.041,0.867,2.359,1.645,2.891
						c1.374,0.939,3.073,1.053,4.636,0.571c0.078-0.024,0.145-0.056,0.211-0.088c4.916,3.366,12.016,1.536,17.606,0.401
						c0.114,0.267,0.243,0.526,0.383,0.773C258.719,235.441,260.682,234.349,259.955,233.113z"/>
				</g>
				<path style="fill:#1E2144;" d="M271.208,210.947c-0.521-0.462-1.331-0.571-2.136-0.348c-2.426,0.675-4.574,4.698-3.099,6.982
					c2.015,3.121,5.597-1.353,6.145-3.4C272.416,213.067,272.2,211.609,271.208,210.947z"/>
				<path style="fill:#DB6458;" d="M251.682,262.642c2.708-5.779,5.916-11.32,8.598-17.1c0.273-0.588-0.411-1.279-0.942-0.757
					c-3.25,3.195-5.401,7.357-7.506,11.355c-2.117,4.019-4.311,8.082-5.471,12.503c-0.698,2.658-1.941,7.601,1.542,8.882
					c1.292,0.475,2.393-0.049,3.369-0.906c1.503-1.319,3.32-2.842,4.011-4.746c0.24-0.66-0.483-1.464-1.17-1.218
					c-1.301,0.466-1.974,1.182-2.97,2.168c-0.257,0.254-1.222,1.581-1.605,1.591c-1.714,0.043-1.064-2.111-0.929-2.903
					C249.135,268.412,250.356,265.473,251.682,262.642z"/>
				<path style="fill:#DB6458;" d="M251.804,292.229c-0.873,0.017-1.695,0.137-2.558,0.237c-1.528,0.178-0.789,0.347-1.132-0.659
					c-0.487-1.428,0.464-4.79,0.74-6.194c0.758-3.849,2.284-7.424,3.589-11.101c0.264-0.745-0.78-1.381-1.32-0.804
					c-3.961,4.23-5.959,10.252-6.58,15.927c-0.24,2.196-0.545,4.95,1.717,6.185c2.054,1.122,4.96,0.463,6.466-1.234
					C253.464,293.755,253.074,292.204,251.804,292.229z"/>
				<path style="fill:#DB6458;" d="M250.879,310.623c-4.793,1.931-2.687-4.955-2.184-7.332c0.646-3.046,1.519-6.007,2.703-8.888
					c0.272-0.663-0.667-1.125-1.132-0.689c-3.678,3.452-6.207,9.784-6.45,14.803c-0.111,2.285,0.685,4.974,2.83,6.142
					c2.279,1.241,4.404,0.073,6.231-1.335C254.541,312.042,252.488,309.974,250.879,310.623z"/>
				<path style="fill:#DB6458;" d="M256.163,321.715c-1.089,1.368-2.252,3.652-3.806,4.575c-0.313,0.627-0.656,0.724-1.027,0.292
					c-0.435-0.192-0.669-0.545-0.703-1.059c-0.389-0.898-0.413-2.077-0.477-3.03c-0.13-1.933-0.003-3.834,0.511-5.707
					c0.384-1.4,1.075-2.673,0.857-4.142c-0.026-0.175-0.254-0.301-0.417-0.247c-2.386,0.779-3.352,4.16-3.879,6.361
					c-0.663,2.772-0.837,6.048,0.26,8.742c0.913,2.243,3.199,3.881,5.651,2.91c2.57-1.018,4.904-4.448,6.084-6.825
					C260.259,321.482,257.584,319.929,256.163,321.715z"/>
				<path style="fill:#DB6458;" d="M337.375,343.074c-12.087,1.085-20.801,11.754-23.352,23.009
					c-2.169,9.571-0.913,22.278,7.415,28.567c-1.922,1.169-4.109,1.81-6.324,2.403c-3.489,0.934-6.957,1.907-10.38,3.063
					c-4.102,1.385-11.134,3.822-10.717,9.299c0.135,1.77,2.294,2.049,2.986,0.465c2.353-5.384,9.317-6.564,14.438-8.025
					c5.062-1.444,10.559-2.243,14.535-5.99c0.837-0.789,0.743-2.369-0.319-2.94c-9.021-4.842-9.958-17.263-8.011-26.195
					c2.324-10.66,9.674-18.874,19.846-22.644C337.983,343.904,338.003,343.018,337.375,343.074z"/>
				<path style="fill:#DB6458;" d="M269.772,351.177c-2.288-4.182-3.757-8.827-4.091-13.595c-0.172-2.458-0.155-4.941-0.015-7.401
					c0.135-2.379,0.564-4.765,0.136-7.131c-0.124-0.685-1.174-0.835-1.499-0.226c-1.26,2.361-1.531,5.132-1.873,7.756
					c-0.373,2.869-0.537,5.738-0.294,8.625c0.427,5.073,1.857,9.846,5.313,13.691C268.568,354.139,270.559,352.615,269.772,351.177z
					"/>
				<path style="fill:#DB6458;" d="M277.672,392.165c-0.074-6.533-0.014-13.105-0.609-19.617
					c-0.569-6.236-1.542-12.376-1.553-18.656c-0.011-6.478,1.024-12.91,1.453-19.365c0.032-0.486-0.687-0.699-0.921-0.269
					c-5.853,10.777-4.616,23.374-3.147,35.089c0.802,6.398,1.248,12.69,1.354,19.137c0.052,3.148,0.117,6.297,0.154,9.445
					c0.037,3.136-0.046,6.208-1.555,9.036c-0.96,1.8,1.622,3.414,2.719,1.663C278.578,403.818,277.733,397.572,277.672,392.165z"/>
				<path style="fill:#1E2144;" d="M232.813,402.421c-7.214-1.87-14.071,8.528-9.069,14.204c0.693,0.786,2.236,0.012,1.853-1.03
					c-1.057-2.88-1.453-5.68,0.544-8.295c1.788-2.34,4.269-2.845,6.766-4.022C233.272,403.108,233.19,402.519,232.813,402.421z"/>
				<path style="fill:#1E2144;" d="M234.745,408.423c0.425-0.689-0.392-1.593-1.111-1.155c-3.161,1.925-4.995,6.48-3.069,9.882
					c0.64,1.131,2.547,0.734,2.524-0.63c-0.023-1.38-0.232-2.809,0.031-4.176C233.382,410.98,234.021,409.597,234.745,408.423z"/>
				<path style="fill:#1E2144;" d="M278.811,405.749c-6.446-2.487-12.565,7.724-8.81,12.784c0.761,1.025,2.261-0.064,2.027-1.127
					c-1.052-4.775,1.721-9.86,6.76-10.49C279.439,406.834,279.302,405.938,278.811,405.749z"/>
				<path style="fill:#1E2144;" d="M281.199,409.945c-3.778,1.285-6.415,7.825-3.674,11.056c0.596,0.703,2.012,0.42,2.187-0.531
					c0.292-1.585-0.111-3.179,0.23-4.761c0.365-1.693,1.416-2.961,2.237-4.436C282.527,410.647,281.979,409.68,281.199,409.945z"/>
				<path style="fill:#1E2144;" d="M308.489,403.323c-7.514-3.526-17.217,4.889-13.128,12.767c0.776,1.495,2.914,0.488,2.63-1.048
					c-0.523-2.831-0.292-5.658,1.843-7.813c2.23-2.251,5.305-2.726,8.333-2.807C308.702,404.409,309.061,403.592,308.489,403.323z"
					/>
				<path style="fill:#1E2144;" d="M308.008,408.552c0.287-0.644-0.15-1.48-0.942-1.277c-2.428,0.623-4.553,3.174-5.156,5.559
					c-0.576,2.276-0.066,5.149,2.407,5.96c0.983,0.322,2.054-0.67,1.748-1.679c-0.424-1.396-1.163-2.552-0.753-4.063
					C305.792,411.28,307.291,410.16,308.008,408.552z"/>
				<path style="fill:#DB6458;" d="M317.1,324.378c-0.03-0.753-1.048-0.922-1.305-0.203c-1.215,3.398-1.709,7.119-2.502,10.636
					c-0.839,3.718-1.726,7.42-2.746,11.094c-2.001,7.209-4.572,14.212-6.841,21.332c-0.433,1.358,1.725,2.399,2.342,1.043
					c3.137-6.894,5.312-14.248,7.173-21.58c0.938-3.694,1.804-7.418,2.503-11.166C316.398,331.925,317.249,328.059,317.1,324.378z"
					/>
				<path style="fill:#DB6458;" d="M261.971,340.845c-3.374,0.846-6.27,0.29-8.102-2.944c-0.719-1.269-1.099-2.722-1.319-4.153
					c-0.267-1.736,0.034-3.604-0.617-5.242c-0.084-0.212-0.365-0.364-0.554-0.158c-2.936,3.2-1.766,9.576,0.632,12.763
					c2.489,3.309,7.906,5.355,11.212,1.986C264.143,342.16,263.287,340.515,261.971,340.845z"/>
				<path style="fill:#DB6458;" d="M289.906,268.482c-0.226-0.876-1.491-0.698-1.548,0.178c-0.246,3.765-0.47,7.612-1.377,11.283
					c-0.918,3.716-2.391,7.191-3.985,10.659c-0.664,1.444,1.145,2.585,2.115,1.293C289.878,285.544,291.894,276.178,289.906,268.482
					z"/>
				<path style="fill:#DB6458;" d="M281.501,280.566c-0.16-0.575-1.089-0.667-1.233-0.025c-0.871,3.872-1.298,7.838-2.291,11.698
					c-0.996,3.87-2.514,7.682-4.139,11.328c-0.715,1.604,1.836,2.589,2.728,1.215C280.939,298.046,283.711,288.5,281.501,280.566z"
					/>
				<path style="fill:#DB6458;" d="M269.28,297.062c-0.017-0.891-1.25-0.88-1.359-0.027c-0.904,7.071-3.49,13.906-5.36,20.751
					c-0.388,1.421,1.654,2.427,2.414,1.075C268.786,312.084,269.427,304.661,269.28,297.062z"/>
				<path style="fill:#DB6458;" d="M358.858,362.071c-0.387-0.651-1.519-0.268-1.277,0.509c0.883,2.832,1.251,5.914,1.079,8.875
					c-0.095,1.626,2.448,1.678,2.531,0.05C361.367,368.057,360.621,365.036,358.858,362.071z"/>
				<path style="fill:#DB6458;" d="M365.533,368.126c-0.319-1.768-0.6-3.957-1.77-5.39c-0.22-0.269-0.671-0.123-0.761,0.185
					c-0.515,1.769,0.119,3.977,0.516,5.718C363.818,369.952,365.768,369.432,365.533,368.126z"/>
				<path style="fill:#DB6458;" d="M370.001,362.488c-0.184-0.227-0.501-0.032-0.527,0.206c-0.182,1.616,0.279,3.294,0.322,4.927
					c0.044,1.682-0.028,3.363-0.236,5.033c-0.183,1.475,2.245,1.57,2.345,0.047C372.111,369.534,372.103,365.075,370.001,362.488z"
					/>
				<path style="fill:#DB6458;" d="M324.546,304.402c-1.927-3.703-3.862-7.88-3.482-12.162c0.047-0.523-0.657-0.529-0.835-0.13
					c-2.103,4.72-0.161,9.242,2.385,13.37C323.36,306.689,325.207,305.671,324.546,304.402z"/>
				<path style="fill:#DB6458;" d="M331.081,304.63c-2.709-3.369-5.464-7.804-6.056-12.16c-0.06-0.443-0.694-0.304-0.735,0.085
					c-0.584,5.619,0.618,10.381,5.201,14.053C330.698,307.575,331.922,305.676,331.081,304.63z"/>
				<path style="fill:#DB6458;" d="M343.3,308.366c-3.293-5.307-6.853-10.426-9.898-15.887c-0.368-0.66-1.296-0.225-1.178,0.469
					c1.093,6.423,4.101,12.606,9.186,16.817C342.364,310.556,344.071,309.609,343.3,308.366z"/>
				<path style="fill:#DB6458;" d="M345.068,330.22c-1.239-2.379-3.48-6.362-6.293-7.045c-0.387-0.094-0.709,0.223-0.635,0.61
					c0.254,1.336,1.17,2.334,1.88,3.469c0.824,1.318,1.582,2.68,2.232,4.093c1.349,2.935,2.209,6.09,3.059,9.199
					c0.326,1.192,2.098,0.992,2.151-0.247C347.616,336.733,346.713,333.378,345.068,330.22z"/>
				<path style="fill:#DB6458;" d="M355.681,342.166c-0.586-6.502-3.035-12.655-6.898-17.909c-0.579-0.787-1.706-0.173-1.326,0.74
					c2.366,5.689,4.134,11.514,5.732,17.455C353.543,343.773,355.813,343.637,355.681,342.166z"/>
				<path style="fill:#DB6458;" d="M360.469,326.076c-0.275-0.309-0.866-0.095-0.848,0.332c0.117,2.797,0.936,5.521,1.466,8.258
					c0.578,2.98,0.995,5.962,1.698,8.918c0.32,1.347,2.136,0.975,2.283-0.263C365.729,337.731,364.318,330.389,360.469,326.076z"/>
				<path style="fill:#DB6458;" d="M339.292,391.826c-1.999-2.265-3.389-4.941-4.038-7.895c-0.686-3.121-0.055-5.862,0.535-8.919
					c0.144-0.747-0.721-1.112-1.183-0.527c-4.355,5.514-1.994,14.746,2.957,19.002C338.72,394.482,340.331,393.003,339.292,391.826z
					"/>
				<path style="fill:#DB6458;" d="M345.925,392.64c-2.598-4.322-4.096-8.868-4.7-13.862c-0.059-0.491-0.763-0.409-0.899-0.018
					c-1.843,5.318-0.389,11.336,3.432,15.484C344.794,395.369,346.727,393.975,345.925,392.64z"/>
				<path style="fill:#DB6458;" d="M357.512,398.724c-0.959-1.89-2.011-3.748-2.916-5.663c-0.48-1.015-0.961-2.059-1.302-3.129
					c-0.16-0.502-0.955-2.579-0.535-3.044c0.44-0.487-0.081-1.248-0.692-0.935c-1.944,0.997-1.413,3.621-1.106,5.43
					c0.551,3.241,2.236,6.064,4.084,8.717C356.068,401.569,358.351,400.377,357.512,398.724z"/>
				<path style="fill:#DB6458;" d="M305.247,322.135c-0.064-1.098-1.717-1.164-1.732-0.035c-0.082,6.121-1.987,11.912-3.885,17.664
					c-0.351,1.064,1.179,1.703,1.762,0.785C304.915,335.008,305.623,328.558,305.247,322.135z"/>
				<path style="fill:#DB6458;" d="M296.616,329.281c-0.251-0.79-1.63-0.756-1.548,0.178c0.205,2.326-0.933,5.12-1.634,7.326
					c-0.729,2.292-1.745,4.53-2.19,6.898c-0.278,1.482,1.524,2.38,2.438,1.086c1.629-2.306,2.356-5.203,2.897-7.939
					C297.099,334.203,297.44,331.875,296.616,329.281z"/>
				<path style="fill:#DB6458;" d="M256.269,362.371c-1.565,4.098-2.826,8.396-3.754,12.683c-0.38,1.757,2.2,2.572,2.708,0.805
					c1.239-4.307,2.168-8.779,2.742-13.224C258.097,361.61,256.594,361.519,256.269,362.371z"/>
				<path style="fill:#DB6458;" d="M261.945,370.093c-0.753,2.96-2.746,6.121-4.492,8.604c-1.034,1.471,1.384,2.958,2.387,1.46
					c0.936-1.398,1.787-2.855,2.367-4.441c0.627-1.715,0.75-3.447,1.092-5.221C263.467,369.619,262.172,369.199,261.945,370.093z"/>
				<path style="fill:#DB6458;" d="M250.138,383.626c-2.088,3.375-4.13,6.648-5.725,10.291c-0.614,1.401,1.775,2.469,2.463,1.096
					c1.708-3.411,3.232-6.937,5.104-10.261C252.661,383.544,250.871,382.441,250.138,383.626z"/>
				<path style="fill:#DB6458;" d="M288.017,384.575c-0.765-2.74-1.543-5.62-1.692-8.469c-0.143-2.736,0.396-5.382,0.564-8.094
					c0.041-0.659-0.851-0.852-1.185-0.346c-3.284,4.982-2.673,12.774,0.275,17.721C286.605,386.437,288.364,385.817,288.017,384.575
					z"/>
				<path style="fill:#DB6458;" d="M292.266,371.757c-0.039-0.274-0.428-0.288-0.558-0.084c-1.542,2.418-1.889,5.359-2.049,8.157
					c-0.107,1.861,2.968,1.902,2.877,0.057C292.402,377.191,292.645,374.435,292.266,371.757z"/>
				<path style="fill:#DB6458;" d="M275.063,259.953c-1.188,3.037-2.185,6.127-3.732,9.011c-1.459,2.719-3.169,5.332-4.974,7.831
					c-0.877,1.215,1.01,2.717,2.039,1.639c4.565-4.779,7.978-11.542,8.207-18.242C276.634,259.263,275.373,259.16,275.063,259.953z"
					/>
				<path style="fill:#ED7966;" d="M289.877,220.62c-1.991,2.621-2.362,7.042-2.039,10.207c0.078,0.76,1.344,1.163,1.491,0.232
					c0.278-1.761,0.525-3.53,0.861-5.281c0.304-1.587,0.904-3.169,0.975-4.782C291.197,220.252,290.266,220.109,289.877,220.62z"/>
				<path style="fill:#ED7966;" d="M294.789,221.831c-1.992,4.091-2.811,8.432-2.606,12.981c0.046,1.021,1.477,1.042,1.579,0.031
					c0.43-4.251,1.07-8.475,1.751-12.691C295.578,221.753,295.008,221.383,294.789,221.831z"/>
				<path style="fill:#ED7966;" d="M299.318,236.738c-0.059-0.521-0.801-0.571-0.837-0.017c-0.225,3.432-0.486,6.895-0.837,10.319
					c-0.368,3.597-1.283,7.025-2.056,10.544c-0.204,0.928,1.033,1.572,1.569,0.699C301.036,251.967,300.104,243.736,299.318,236.738
					z"/>
				<path style="fill:#ED7966;" d="M292.024,242.773c-0.089-0.584-1.029-0.583-1.156-0.023c-0.934,4.108-2.111,8.135-3.113,12.224
					c-0.331,1.351,1.656,2.419,2.345,1.044C292.128,251.973,292.697,247.212,292.024,242.773z"/>
				<path style="fill:#ED7966;" d="M285.114,240.621c-3.508,3.304-3.783,8.438-3.263,12.929c0.13,1.12,1.859,0.828,1.911-0.22
					c0.213-4.257,0.062-8.212,2.131-12.082C286.158,240.753,285.545,240.215,285.114,240.621z"/>
				<path style="fill:#ED7966;" d="M395.416,326.293c-2.628,1.901-3.813,5.803-4.429,8.857c-0.656,3.255-0.388,6.418,1.801,9.03
					c0.888,1.059,2.516-0.241,1.897-1.404c-2.688-5.05-0.169-10.804,1.804-15.623C396.725,326.579,395.93,325.921,395.416,326.293z"
					/>
				<path style="fill:#ED7966;" d="M398.992,332.77c-1.091,3.047-1.747,5.985-1.245,9.217c0.188,1.207,2.242,0.984,2.155-0.248
					c-0.203-2.864-0.295-5.766,0.568-8.53C400.768,332.255,399.324,331.842,398.992,332.77z"/>
				<path style="fill:#ED7966;" d="M412.207,298.286c-4.228,4.357-6.342,10.851-3.894,16.621c0.338,0.796,1.762,0.451,1.676-0.418
					c-0.543-5.485-0.014-10.733,3.38-15.268C413.883,298.534,412.795,297.68,412.207,298.286z"/>
				<path style="fill:#ED7966;" d="M414.18,305.576c-1.772,4.406-2.798,8.611-1.876,13.363c0.277,1.429,2.635,1.18,2.567-0.295
					c-0.189-4.152-0.305-8.575,0.914-12.59C416.104,305.004,414.575,304.594,414.18,305.576z"/>
			</g>
		</g>
		<g>
			<g>
				<g>
					<path style="fill:#FFFFFF;" d="M306.913,394.921c2.684,1.958,6.786,4.846,11.986,8.182c0.643,0.413,1.374,0.56,2.089,0.751
						c28.36,7.569,35.721,18.263,29.538,22.611c-5.824,4.095-15.543,2.041-35.495,1.495l-9.251-0.437
						c-1.953-0.165-6.339-2.115-7.123-4.151c-1.191-3.094-11.319-8.056-13.211-15.384c-0.542-2.099,8.26-4.652,9.614-6.212
						l5.222-6.014C302.042,393.735,304.808,393.385,306.913,394.921z"/>
					<path style="fill:#1E2144;" d="M115.756,405.067c-0.843,0.941,2.948,8.391,3.376,9.298c2.985,6.329,7.205,12.296,12.952,16.4
						c18.525,13.225,41.945,1.099,57.258-11.361c4.267-3.472,44.097-39.752,44.406-39.471c0.006,0.005,31.173,28.264,63.608,42.548
						c0,0,10.614-13.956,15.099-25.141c0,0-40.737-46.498-71.955-58.076C240.5,339.263,188.305,324.745,115.756,405.067z"/>
				</g>
				<path style="fill:#5EC5D3;" d="M200.417,268.841c8.374,22.932,4.354,43.414,4.348,67.379c-0.001,4.076,3.324,4.879,2.068,8.757
					c-3.356,10.362-19.886,24.591-29.062,27.519c-9.928,3.168-20.103,5.642-29.613,10.022c-6.885,3.171-10.799,10.087-14.034,16.599
					c-2.258,4.544-11.55,23.025-18.418,19.622c-4.342-2.152-4.571-11.531-5.012-15.631c-1.344-12.492-0.508-25.056,0.921-37.502
					c2.135-18.591,5.843-37.113,11.929-54.832c8.209-23.898,21.557-48.843,44.536-61.38
					C183.128,241.185,195.469,255.29,200.417,268.841z"/>
				<g>
					<path style="fill:#FF9988;" d="M259.688,276.251c0.205-0.197,0.498-0.317,0.792-0.28c0.515,0.065,0.622,0.512,0.664,0.899
						c0.304,2.803-0.608,5.584-1.51,8.275c4.691-4.086,8.928-8.615,12.623-13.495c0.189-0.249,0.473-0.437,0.799-0.478
						c0.571-0.072,0.807,0.307,0.925,0.674c0.355,1.102-0.075,2.278-0.553,3.34c-1.065,2.369-2.386,4.631-3.704,6.889
						c2.225-2.453,4.594-4.794,7.094-7.009c0.738-0.654,1.599-1.339,2.622-1.321c0.689,0.89,0.104,2.114-0.488,3.062
						c-1.742,2.791-3.483,5.583-5.225,8.374c2.956-2.508,6.189-5.132,10.004-6.005c0.789-0.18,1.433,0.591,1.064,1.259
						c-2.09,3.783-5.69,6.76-9.18,9.594c2.592-1.288,5.608-1.835,8.536-1.55c0.465,0.045,0.971,0.128,1.136,0.686
						c0.118,0.396-0.016,0.816-0.291,1.139c-1.306,1.531-3.032,2.682-4.767,3.777c-8.347,5.269-17.36,9.634-26.784,13.02
						c-0.498,0.179-1.014,0.358-1.549,0.347c-1.051-0.023-1.903-0.756-2.644-1.443c-1.708-1.583-3.434-3.186-4.681-5.101
						c-1.081-1.66-1.801-3.615-1.654-5.572c0.14-1.858,1.092-2.125,2.411-3.258c3.388-2.911,6.076-6.639,8.939-9.976
						C255.994,280.087,257.762,278.103,259.688,276.251z"/>
					<path style="fill:#42B3BC;" d="M150.094,269.591c-10.028,11.064-2.831,25.663,3.753,36.185
						c11.47,18.331,26.187,46.925,51.796,34.515c0,0,34.588-18.453,54.262-33.391c0,0,0.952-12.595-11.741-19.039
						c0,0-33.953,12.302-50.136,19.038c1.359-0.574-7.242-16.065-7.884-17.244c-4.601-8.447-8.929-18.494-17.786-23.264
						C163.488,261.613,155.23,263.923,150.094,269.591z"/>
				</g>
			</g>
			<g>
				<g>
					<path style="fill:#FF9988;" d="M202.147,236.895c0,0-0.58,1.254-1.52,3.316c-1.924,4.215-5.36,11.819-8.456,19.039
						c-1.939,4.531-3.746,8.91-4.962,12.208l-18.746-17.281l10-12.153l7.601-9.238l1.438-1.749L202.147,236.895z"/>
					<path style="fill:#ED7966;" d="M200.627,240.211c-1.924,4.215-5.36,11.819-8.456,19.039c-1.755-1.104-3.404-2.498-4.856-3.869
						c-3.916-3.696-6.915-8.336-8.852-13.356l7.601-9.238c1.611,0.384,3.213,0.814,4.801,1.286c3.134,0.932,6.356,2.118,8.564,4.531
						C199.883,239.101,200.281,239.64,200.627,240.211z"/>
				</g>
				<path style="fill:#1E2144;" d="M212.619,188.894c6.144,7.225,8.243,17.82,7.572,27.748c-0.113,1.665-0.315,3.39-1.121,4.797
					c-0.806,1.408-2.376,2.403-3.813,1.929c-0.867-0.286-1.539-1.035-2.171-1.757c-2.014-2.301-4.028-4.602-6.042-6.903
					c-4.195-4.793-8.418-9.625-11.71-15.226c-2.704-4.601-9.894-17.33-2.104-19.592C199.764,177.992,208.15,183.639,212.619,188.894
					z"/>
				<path style="fill:#FF9988;" d="M218.759,222.824c2.34,7.409,4.113,16.938,0.322,23.72c-3.168,5.668-9.551,7.466-16.042,7.259
					c-6.49-0.208-13.155-3.461-18.569-7.046c-5.676-3.758-10.377-8.128-13.38-14.238c-2.826-5.748-3.501-12.296-3.807-18.694
					c-0.146-3.057-0.21-6.18,0.676-9.109c0.698-2.307,1.964-4.408,3.429-6.322c4.037-5.275,9.78-9.314,16.232-10.888
					c6.455-1.575,17.377-1.002,21.31,5.392c2.32,3.771,3.168,8.834,4.485,13.006C215.197,211.543,216.978,217.184,218.759,222.824z"
					/>
				<g>
					<path style="fill:#1E2144;" d="M214.94,207.625c-3.698-1.797-9.646,1.834-9.307,6.065c0.03,0.372,0.431,0.506,0.673,0.216
						c1.103-1.323,2.055-2.738,3.583-3.622c1.567-0.906,3.068-0.647,4.743-0.932C215.387,209.224,215.683,207.986,214.94,207.625z"
						/>
					<path style="fill:#1E2144;" d="M195.609,216.998c-3.698-1.797-9.646,1.834-9.307,6.065c0.03,0.372,0.431,0.506,0.673,0.216
						c1.103-1.323,2.055-2.738,3.583-3.622c1.567-0.906,3.068-0.647,4.743-0.932C196.055,218.597,196.352,217.359,195.609,216.998z"
						/>
					<path style="fill:#ED7966;" d="M210.669,225.62c-0.635-1.186-3.198-1.625-4.258-2.222c-1.66-0.934-2.98-2.367-3.856-4.021
						c-0.125-0.236-0.505-0.25-0.633-0.007c-0.979,1.861,1.733,4.058,3.021,4.98c0.55,0.394,1.148,0.685,1.767,0.955
						c0.587,0.257,1.985,0.556,2.272,1.11c0.287,0.553-0.607,1.528-1.003,1.883c-0.657,0.59-1.445,0.755-2.237,1.072
						c-0.77,0.308-0.67,1.356,0.187,1.44c1.369,0.135,2.768-0.786,3.631-1.789C210.206,228.27,211.225,226.656,210.669,225.62z"/>
					<path style="fill:#1E2144;" d="M193.108,207.613c-3.391-1.055-8.199,0.202-10.664,2.786c-0.688,0.721,0.079,1.923,1.023,1.454
						c1.479-0.737,2.835-1.565,4.46-1.962c1.597-0.39,3.221-0.365,4.851-0.45C193.778,209.388,194.183,207.947,193.108,207.613z"/>
					<path style="fill:#1E2144;" d="M209.537,199.27c-3.039-0.956-7.943,2.178-8.385,5.35c-0.099,0.713,0.596,1.128,1.17,0.681
						c1.208-0.94,2.056-2.145,3.41-2.95c1.257-0.747,2.707-0.966,3.995-1.633C210.359,200.392,210.155,199.465,209.537,199.27z"/>
					<path style="fill:#FFFFFF;" d="M218.766,203.843c-1.667-2.424-4.531-3.921-7.46-3.991c-0.276-0.007-0.548,0.003-0.818,0.02
						c-0.377-0.003-0.756,0.015-1.133,0.055c-2.674,0.283-5.604,1.176-7.307,3.376c-1.795,2.317-2.416,5.82-1.861,8.99
						c-0.798,0.053-1.584,0.498-2.157,1.082c-1.701-1.821-4.146-2.919-6.641-2.979c-0.276-0.007-0.548,0.003-0.818,0.02
						c-0.377-0.003-0.755,0.015-1.133,0.055c-2.674,0.283-5.604,1.177-7.307,3.376c-2.936,3.791-2.737,10.758,0.626,14.248
						c3.6,3.736,10.358,2.883,14.066-0.171c3.832-3.156,4.888-9.119,2.164-13.325c0.235-0.137,0.49-0.246,0.743-0.325
						c0.311-0.097,0.628-0.076,0.94-0.108c0.447,1.289,1.114,2.459,2.005,3.384c3.6,3.736,10.358,2.883,14.066-0.171
						C220.635,214.171,221.665,208.058,218.766,203.843z M196.963,225.477c-2.621,3.131-7.572,4.283-11.285,2.515
						c-3.822-1.82-4.412-7.497-3.111-11.088c1.247-3.444,5.303-5.261,9.012-4.997c1.85,0.212,3.628,0.992,5.012,2.397
						C199.477,217.234,199.586,222.343,196.963,225.477z M216.88,214.933c-2.621,3.131-7.572,4.283-11.285,2.515
						c-3.822-1.82-4.412-7.497-3.112-11.088c1.247-3.444,5.303-5.261,9.012-4.997c1.85,0.212,3.628,0.992,5.012,2.397
						C219.395,206.689,219.504,211.798,216.88,214.933z"/>
					<path style="fill:#FFFFFF;" d="M202.849,236.483c0,0,8.017-5.928,13.754-5.26c0,0,2.544,6.716-3.012,9.883
						C213.591,241.107,205.93,244.983,202.849,236.483z"/>
				</g>
				<path style="fill:#1E2144;" d="M164.662,182.187c-9.777,6.99-15.235,20.71-19.218,32.05c-2.67,7.602-4.28,17.638-9.161,24.048
					c-8.695,11.422-23.657,15.115-36.491,21.544c-8.173,4.095-15.561,9.75-21.648,16.571c-7.912,8.866-13.709,21.662-8.818,32.492
					c1.289,2.855,3.265,5.413,4.123,8.426c1.482,5.2-0.595,10.68-0.86,16.079c-0.382,7.765,3.298,15.618,9.509,20.295
					c5.645,4.25,12.855,5.791,19.872,6.625c8.34,0.991,16.779,1.145,25.15,0.459c6.347-0.52,12.932-1.633,18.062-5.406
					c4.793-3.525,7.802-9.049,9.434-14.771c1.149-4.029,1.685-8.308,0.896-12.423c-1.883-9.812-11.033-17.979-9.832-27.898
					c1.419-11.722,16.192-17.421,19.806-28.662c1.933-6.009,1.248-9.042,3.821-14.807c3.208-7.189,12.111-11.002,14.128-18.611
					c0.866-3.269-0.595-10.532-1.134-13.87c-0.994-6.15-1.819-12.519-0.252-18.549c1.567-6.03,6.082-11.697,12.214-12.795
					c3.331-0.596,15.354-0.193,14.792-6.312c-0.395-4.3-11.635-8.742-14.338-9.556C185.009,174.196,172.86,176.325,164.662,182.187z
					"/>
			</g>
		</g>
	</g>
</g>
</svg>
